<?xml version="1.0" standalone="no"?>
<!DOCTYPE svg PUBLIC "-//W3C//DTD SVG 20010904//EN"
 "http://www.w3.org/TR/2001/REC-SVG-20010904/DTD/svg10.dtd">
<svg version="1.0" xmlns="http://www.w3.org/2000/svg"
 width="421.000000pt" height="421.000000pt" viewBox="0 0 421.000000 421.000000"
 preserveAspectRatio="xMidYMid meet">
<metadata>
Created by potrace 1.11, written by Peter Selinger 2001-2013
</metadata>
<g transform="translate(0.000000,421.000000) scale(0.100000,-0.100000)"
fill="#000000" stroke="none">
<path d="M1787 4029 c-39 -6 -68 -23 -116 -67 -27 -24 -40 -29 -79 -28 -26 1
-57 -5 -69 -12 -12 -7 -45 -15 -75 -17 -29 -2 -69 -9 -88 -15 -19 -6 -51 -13
-70 -16 -19 -3 -43 -10 -52 -15 -10 -5 -18 -7 -18 -4 0 3 -21 -6 -47 -21 -27
-14 -49 -26 -50 -25 -6 2 -40 -11 -73 -27 -51 -25 -75 -52 -95 -107 -11 -27
-26 -56 -34 -62 -37 -30 -93 -62 -211 -120 -69 -34 -149 -80 -179 -102 -29
-23 -57 -41 -61 -41 -4 0 -15 -16 -24 -35 -9 -19 -21 -35 -26 -35 -6 0 -10 -5
-10 -11 0 -6 -12 -34 -26 -63 -14 -28 -28 -59 -30 -68 -2 -10 -7 -28 -10 -40
-15 -63 -11 -93 22 -148 39 -67 36 -74 -48 -128 -35 -21 -72 -52 -83 -67 -11
-15 -27 -36 -36 -45 -48 -50 -58 -176 -23 -285 13 -41 26 -89 29 -107 3 -17 8
-36 12 -41 3 -5 7 -39 8 -76 6 -125 90 -249 213 -314 20 -10 46 -25 58 -32 11
-7 36 -16 55 -19 41 -7 116 -18 144 -20 23 -2 81 9 116 23 13 5 29 10 34 11 6
1 15 5 20 10 17 13 85 33 160 46 41 8 101 -18 108 -45 11 -44 -137 -150 -232
-166 -19 -3 -39 -12 -45 -19 -6 -7 -43 -34 -82 -58 -42 -27 -80 -61 -93 -82
-13 -20 -26 -36 -29 -36 -16 0 -51 -70 -67 -135 -21 -83 -26 -134 -14 -156 5
-9 11 -35 13 -57 3 -22 17 -59 30 -83 92 -164 91 -162 92 -314 1 -77 6 -152
12 -167 11 -28 70 -79 96 -85 9 -2 23 -4 31 -6 21 -4 64 -47 71 -71 4 -12 17
-35 30 -52 13 -17 24 -35 24 -40 1 -28 182 -131 245 -139 20 -2 46 -7 56 -10
23 -7 409 -14 427 -8 18 7 15 31 -5 37 -41 13 -161 106 -195 151 -38 51 -97
164 -104 199 -2 12 -17 50 -33 86 -45 98 -73 195 -77 269 -3 36 -6 80 -8 96
-4 45 26 107 53 112 13 2 30 -2 37 -8 12 -10 52 -104 59 -141 2 -9 11 -30 19
-47 9 -17 15 -31 12 -31 -5 0 24 -92 54 -170 11 -30 22 -64 24 -76 7 -39 68
-189 95 -234 5 -8 19 -39 32 -67 12 -29 25 -53 29 -53 4 0 19 -21 33 -47 29
-53 81 -112 100 -114 66 -6 112 -2 167 12 86 23 186 69 234 108 21 17 42 31
47 31 5 0 41 29 80 65 89 80 147 109 203 101 62 -9 78 -10 115 -3 71 12 282
180 366 292 35 46 192 205 197 199 2 -2 4 5 5 14 1 15 -7 18 -60 16 -34 -1
-96 8 -137 18 -74 20 -91 24 -140 33 -84 16 -195 48 -242 69 -21 9 -41 16 -46
16 -5 0 -31 9 -58 19 -27 11 -78 29 -114 42 -56 20 -77 35 -158 116 -51 51
-96 93 -101 93 -5 0 -32 25 -59 55 -46 50 -56 74 -40 90 13 14 86 -17 118 -50
18 -19 49 -40 67 -46 18 -6 33 -14 33 -19 0 -5 9 -12 20 -15 11 -3 26 -12 32
-19 7 -6 31 -23 53 -36 22 -13 49 -32 59 -42 11 -10 25 -18 32 -18 6 0 22 -8
35 -18 22 -16 154 -72 172 -72 4 0 26 -12 48 -26 123 -77 136 -82 249 -89 41
-3 82 -7 90 -8 94 -21 203 -28 240 -15 36 12 88 61 121 113 16 26 41 57 56 71
14 13 22 24 17 24 -5 0 -4 4 1 8 16 11 70 134 80 183 28 132 86 221 169 258
43 19 85 55 86 74 0 4 7 24 17 45 26 58 42 102 64 172 12 35 34 89 50 119 16
29 29 61 29 70 0 10 4 21 9 27 12 11 23 80 25 147 1 26 6 51 12 55 24 15 36
216 21 347 -5 48 -29 41 -65 -19 -62 -104 -86 -118 -242 -142 -60 -9 -88 -14
-130 -23 -40 -9 -190 -7 -270 3 -53 6 -80 24 -80 52 0 28 250 123 340 128 30
2 84 12 120 21 36 9 76 19 90 22 51 9 151 45 165 60 13 12 20 40 16 65 -1 10
-10 59 -17 93 -12 58 -10 175 2 212 7 21 22 45 33 54 30 25 5 40 -66 43 -80 3
-141 33 -215 107 -134 133 -155 149 -192 144 -66 -8 -244 -123 -322 -207 -127
-137 -226 -266 -338 -438 -21 -33 -41 -60 -45 -60 -3 0 -17 -10 -31 -22 -56
-51 -92 -26 -82 56 5 50 56 158 115 246 75 111 94 137 128 173 20 22 41 43 46
49 26 29 111 103 144 125 22 14 39 29 39 34 0 4 13 10 29 14 15 3 37 14 47 23
29 26 94 51 149 58 55 6 60 8 51 22 -9 15 -131 94 -217 141 -41 22 -86 47
-100 55 -30 17 -80 21 -124 10 -42 -10 -96 -11 -121 -3 -11 4 -44 10 -72 14
-29 3 -65 10 -82 15 -16 5 -30 7 -30 4 0 -2 -13 2 -30 11 -16 9 -30 13 -30 10
0 -3 -20 6 -45 19 -25 14 -56 28 -69 30 -13 2 -35 10 -47 17 -52 27 -82 15
-166 -69 -104 -106 -183 -196 -212 -243 -12 -22 -26 -39 -31 -39 -4 0 -15 -20
-26 -45 -10 -25 -22 -45 -27 -45 -4 0 -5 -5 -1 -12 5 -7 3 -8 -6 -3 -10 6 -12
4 -7 -8 4 -10 2 -17 -4 -17 -7 0 -9 9 -5 23 4 12 9 33 12 47 3 14 9 27 15 28
5 2 9 12 9 22 0 19 70 158 113 226 28 44 110 124 127 124 6 0 9 4 6 9 -4 5 0
12 6 14 7 3 2 6 -12 7 -106 6 -187 11 -255 14 -44 1 -100 7 -125 11 -57 10
-117 12 -163 4z m-132 -129 c3 -5 -10 -58 -30 -117 -20 -60 -45 -142 -55 -183
-10 -41 -28 -106 -39 -144 -11 -38 -23 -88 -27 -110 -3 -22 -7 -43 -9 -47 -4
-6 -15 -58 -20 -99 -2 -14 -6 -43 -10 -65 -3 -22 -7 -60 -9 -85 -2 -25 -7 -67
-10 -95 -4 -27 -9 -81 -12 -120 -11 -157 -16 -175 -43 -175 -36 0 -55 115 -53
330 0 105 7 228 16 305 2 17 11 57 21 90 9 33 19 71 22 85 23 126 123 339 188
399 46 42 59 48 70 31z m-724 -387 c1 -5 3 -53 4 -108 2 -55 6 -125 10 -155 3
-30 7 -78 9 -107 2 -28 7 -59 10 -70 3 -10 8 -38 11 -63 3 -25 8 -56 10 -70 3
-14 7 -45 10 -70 2 -25 7 -56 10 -70 3 -14 8 -50 10 -80 8 -105 -26 -103 -75
5 -36 77 -110 308 -116 360 -3 22 -9 56 -13 75 -19 94 8 229 66 323 21 33 51
50 54 30z m1092 -98 c-3 -9 -8 -14 -10 -11 -3 3 -2 9 2 15 9 16 15 13 8 -4z
m-13 -66 c0 -5 -8 -9 -17 -8 -11 0 -13 3 -5 6 6 2 9 10 6 15 -4 7 -2 8 4 4 7
-4 12 -11 12 -17z m530 -79 c-6 -4 -11 -11 -11 -16 1 -19 -23 -84 -31 -84 -4
0 -7 -3 -6 -7 0 -5 -6 -24 -14 -43 -21 -49 -31 -73 -33 -85 -2 -5 -22 -57 -44
-115 -85 -214 -112 -257 -157 -246 -31 8 -47 49 -40 97 6 37 65 168 112 249
90 154 191 274 220 263 11 -4 12 -8 4 -13z m-570 -20 c0 -5 -4 -10 -10 -10 -5
0 -10 5 -10 10 0 6 5 10 10 10 6 0 10 -4 10 -10z m-9 -33 c-6 -8 -8 -17 -4
-20 3 -4 0 -7 -7 -7 -7 0 -10 -3 -7 -7 4 -3 1 -13 -6 -21 -9 -12 -9 -14 0 -9
8 5 6 -15 -7 -60 -19 -72 -60 -260 -66 -303 -9 -78 -35 -149 -57 -156 -24 -8
-36 4 -43 42 -11 56 -6 85 40 239 15 49 119 279 130 287 7 5 7 8 1 8 -12 0 16
20 29 20 5 0 3 -6 -3 -13z m-1489 -439 c11 -13 28 -34 39 -48 10 -14 33 -43
49 -65 17 -22 37 -48 45 -58 8 -9 35 -48 60 -86 36 -53 45 -76 43 -103 -2 -34
-4 -36 -32 -33 -63 6 -93 27 -192 138 -76 85 -109 208 -68 255 23 28 32 28 56
0z m989 -416 c6 -40 4 -104 -4 -109 -5 -3 -3 -10 4 -15 10 -6 6 -7 -11 -3 -37
11 -42 19 -45 72 -3 63 9 87 35 73 11 -6 20 -14 21 -18z m2583 -6 c-11 -30
-117 -90 -174 -100 -19 -3 -45 -8 -56 -10 -12 -2 -38 -7 -59 -10 -20 -4 -41
-9 -45 -11 -56 -35 -525 -49 -696 -21 -46 7 -173 53 -187 68 -26 25 -27 58 -3
73 24 16 28 16 191 -19 39 -8 86 -18 105 -21 19 -3 43 -8 53 -11 17 -5 74 -10
242 -19 219 -12 273 -9 354 20 23 8 41 13 41 11 0 -7 125 35 148 50 12 8 22
12 22 9 0 -4 10 1 22 9 24 17 51 5 42 -18z m-1944 -281 c0 12 61 -27 75 -48
24 -37 24 -121 -1 -131 -35 -13 -134 55 -153 107 -20 52 17 97 62 75 9 -5 17
-6 17 -3z m478 -96 c86 -45 162 -85 167 -90 21 -16 122 -66 151 -74 35 -10 35
-10 54 -18 83 -36 296 -88 332 -82 11 2 31 0 46 -6 14 -6 71 -12 127 -15 55
-2 116 -6 135 -8 19 -2 41 -5 48 -5 29 -2 9 -29 -30 -40 -87 -23 -125 -27
-193 -24 -38 1 -146 5 -240 8 -161 5 -196 7 -305 19 -74 9 -90 13 -200 51
-119 40 -271 114 -312 150 -60 53 -84 145 -55 212 20 46 55 36 275 -78z m-776
-68 c40 -35 120 -172 123 -209 3 -39 -12 -62 -39 -62 -31 0 -158 117 -184 171
-22 44 -20 83 5 111 23 26 58 22 95 -11z m-274 -235 c10 -33 18 -62 17 -64
-11 -12 -42 -5 -55 12 -23 31 -44 79 -41 96 5 37 10 40 35 29 17 -8 29 -28 44
-73z m263 -414 c33 -42 73 -92 87 -111 15 -19 29 -39 31 -45 2 -6 7 -13 11
-16 6 -5 131 -159 190 -235 82 -105 170 -200 235 -252 94 -75 110 -89 112
-100 2 -7 -6 -10 -17 -7 -11 2 -29 6 -40 8 -66 15 -253 124 -295 172 -5 6 -53
44 -107 83 -89 66 -205 178 -194 188 5 5 -28 87 -82 203 -59 127 -69 171 -46
195 23 22 45 6 115 -83z m-800 -121 c1 -9 2 -23 2 -31 0 -25 -13 -122 -17
-129 -3 -4 -7 -27 -10 -51 -3 -25 -7 -54 -9 -65 -8 -40 -17 -91 -21 -125 -3
-19 -8 -53 -12 -75 -3 -22 -8 -60 -9 -85 -4 -62 -3 -60 -20 -60 -23 0 -31 55
-29 195 3 147 9 215 28 301 6 28 34 94 51 120 16 24 44 27 46 5z"/>
</g>
</svg>
